# xmcd
#
# Track frame offsets:
#	150
#	17718
#	36038
#	54526
#	70691
#	91419
#	110642
#	132101
#	154420
#	168698
#	183958
#	208577
#	227753
#	247591
#	269404
#	284199
#	302204
#	320357
#	337874
#
# Disc length: 4668 seconds
#
# Revision: 10
# Processed by: cddbd v1.5.2PL0 Copyright (c) Steve Scherf et al.
# Submitted via: Jack! The Knife 20 Magnifico
#
DISCID=0f123a13
DTITLE=Abba - Gold
DYEAR=1992
DGENRE=Pop
TTITLE0=Dancing Queen
TTITLE1=Knowing Me, Knowing You
TTITLE2=Take A Chance Of Me
TTITLE3=Mamma Mia
TTITLE4=Lay All Your Love On Me
TTITLE5=Super Trouper
TTITLE6=I Have A Dream
TTITLE7=The Winner Takes It All
TTITLE8=Money, Money, Money
TTITLE9=S.O.S.
TTITLE10=Chiquitita
TTITLE11=Fernando
TTITLE12=Voulez Vous
TTITLE13=Gimme! Gimme! Gimme! (A Man After Midnight)
TTITLE14=Does Your Mother Know
TTITLE15=One Of Us
TTITLE16=The Name Of The Game
TTITLE17=Thank Your For The Music
TTITLE18=Waterloo
EXTD=Benny Andersson and Björn Ulvaeus
EXTT0=Andersson, Anderson, Ulvaeus
EXTT1=Andersson, Anderson, Ulvaeus
EXTT2=Andersson, Ulvaeus
EXTT3=Andersson, Anderson, Ulvaeus
EXTT4=Andersson, Ulvaeus
EXTT5=Andersson, Ulvaeus
EXTT6=Andersson, Ulvaeus
EXTT7=Andersson, Ulvaeus
EXTT8=Andersson, Ulvaeus
EXTT9=Andersson, Anderson, Ulvaeus
EXTT10=Andersson, Ulvaeus
EXTT11=Andersson, Ulvaeus
EXTT12=Andersson, Ulvaeus
EXTT13=Andersson, Ulvaeus
EXTT14=Andersson, Ulvaeus
EXTT15=Andersson, Ulvaeus
EXTT16=Andersson, Anderson, Ulvaeus
EXTT17=Andersson, Ulvaeus
EXTT18=Andersson, Anderson, Ulvaeus
PLAYORDER=
